<svg width="372" height="372" viewBox="0 0 372 372" fill="none" xmlns="http://www.w3.org/2000/svg">
<circle cx="186" cy="186" r="186" fill="#726CC1"/>
<path d="M273.905 323C171.18 323 87.9051 239.725 87.9051 137C87.9051 85.4125 108.907 38.7302 142.826 5.0365C60.9209 24.5046 0 98.1379 0 186C0 288.725 83.275 372 186 372C237.137 372 283.455 351.363 317.079 317.963C303.224 321.257 288.768 323 273.905 323Z" fill="#040718"/>
<path d="M217 45L230.022 85.077L272.161 85.077L238.07 109.846L251.092 149.923L217 125.154L182.908 149.923L195.93 109.846L161.839 85.077L203.978 85.077L217 45Z" fill="#040718"/>
</svg>
