<svg width="561" height="561" viewBox="0 0 561 561" fill="none" xmlns="http://www.w3.org/2000/svg">
<circle cx="280.5" cy="280.5" r="280.5" fill="white"/>
<path d="M342 446C330.8 394.8 314 388 307 391C329.4 410.2 318.894 453.485 307 463C282 483 276.427 500.333 279 513C244.6 495.4 239 477.5 246 462C280 411.5 261.667 390.333 246 385C255 414 229.5 431.553 218 437C199 446 163.333 459.333 148 475C145 461.333 146.2 429 175 409C203.8 389 203 365.333 199 356C167.8 396.8 160 398 139 391C103.5 366.5 77.6667 374.333 68 385C76 349.8 100 341 111 341C167.8 336.2 172 308.333 167 295C139.8 313.4 114.333 302.667 105 295C76.5 269 51.3333 270.333 40 278C47.3333 262 71.8 233.8 111 249C150.2 264.2 164.667 252 167 244C121.4 234.4 112.9 216.5 111 207C102.5 164.5 87.6667 154 75 152C111 134.4 134 152 148 167C167 195.5 194 195 208 190C162.4 163.6 161.667 138.333 167 129C183 92 178.333 79.6667 167 74C181.333 69.3333 211.6 70.2 218 111C224.4 151.8 248.667 165.333 260 167C240.8 126.2 252 102 260 95C284 74 287 56 284 47C299.333 54 325.4 76.6 307 111C288.6 145.4 308.667 162.667 321 167C313 136.6 341 117 356 111C392 96.6 403.667 88.6667 403 80C423.8 107.2 413.5 138.182 398 143C361 154.5 357.333 185.333 361 200C384.5 176.5 411.5 165.5 430 172C444.654 177.149 480.667 173.333 489 167C485.5 202 473.5 215 458.5 215C400.1 215.8 389 242 389 256C426.6 236 453.333 247.667 462 256C495.6 297.6 515.333 299.333 521 295C508.2 315.8 482 321.312 472 316C420.8 288.8 395.333 304.667 389 316C431 323 438.483 329.808 449.5 346.5C466 371.5 439.5 375 487.5 409C453.5 432 428.5 413 421 400C406.865 375.5 363.5 365.5 353.5 368.5C402 394.5 396 412 394 422C385.424 464.877 388.333 480.833 401 488.5C357 483.7 342.333 457.667 342 446Z" fill="#F38638"/>
<path d="M305.03 386.404C306.343 389.468 307.657 392.532 308.97 395.596C310.395 394.18 315.868 396.205 319.363 399.984C323.113 403.716 326.19 408.52 328.844 413.593C334.09 423.731 337.737 434.962 340.662 446.293L340.63 446.039C346.172 473.962 375.562 485.672 400.282 488.419C400.52 488.447 400.76 488.474 401 488.5C393.354 484.243 389.983 475.316 389.376 466.951C388.268 451.845 391.171 436.798 394.002 422C402.177 395.499 373.005 379.617 353.504 368.492L353.503 368.509C378.846 367.596 406.567 378.325 420.981 400.011C434.263 423.087 467.651 424.71 487.522 409.033L487.57 409.001L487.523 408.967C477.224 401.448 466.534 393.87 459.816 382.853C456.398 377.306 456.285 370.669 455.949 364.339C455.573 357.932 453.129 351.788 449.553 346.465C438.234 324.117 411.387 319.898 389.015 315.912L389.078 316.043C409.1 289.82 446.994 302.918 471.94 316.114C490.476 322.375 511.146 311.024 521.134 295.083L520.904 294.875C509.051 300.01 497.14 290.045 487.863 282.838C478.357 274.854 469.972 265.532 462.156 255.874L462.139 255.856C441.43 238.601 411.044 243.675 388.883 255.78L389.249 256C391.187 222.995 430.859 215.442 458.504 215.313C482.408 214.494 487.154 186.092 489.359 167.036L489.442 166.211L488.781 166.712C470.953 174.926 449.27 176.138 430.136 171.612C403.675 164.247 378.787 182.135 360.66 199.66L361.467 199.883C355.367 175.05 373.882 149.542 398.164 143.529C422.138 131.765 418.22 97.5775 403.499 79.6186L402.212 77.9351L402.374 80.0481C402.024 89.7396 390.573 94.1653 382.547 98.6581C373.822 103.002 364.818 106.724 355.743 110.358C333.906 119.096 312.776 142.062 320.251 167.197L321.257 166.269C311.09 162.598 302.794 153.543 300.94 142.807C298.968 132.046 302.591 121.049 307.754 111.403C322.903 88.3125 308.717 56.1409 284.396 46.1327L282.404 45.2212L283.096 47.3015C287.295 65.5899 272.711 82.2999 259.323 94.2259C240.821 114.974 248.65 145.133 258.973 167.483L260.165 165.877C235.932 160.435 222.584 134.459 219.229 110.807C217.359 98.6973 212.727 86.1086 202.544 78.2364C192.453 70.3679 178.519 68.9775 166.58 72.7114L163.439 73.7308L166.394 75.2121C175.801 79.1491 177.113 90.5079 175.132 99.9839C173.304 109.747 169.643 119.182 165.668 128.424L165.74 128.28C155.856 158.096 185.976 178.337 207.207 191.37L207.467 188.509C185.978 196.269 161.183 185.406 149.417 166.056L149.245 165.838C132.068 144.196 98.63 136.17 74.1887 150.34L68.9289 152.907L74.7119 153.825C97.6142 158.229 104.391 185.999 109.062 207.388C115.969 233.571 144.459 240.784 166.565 246.067L164.972 243.409C162.055 251.881 150.559 254.623 141.003 254.017C131.085 253.492 121.26 250.577 111.808 246.917C84.3653 234.048 49.7148 249.91 37.8112 276.997L34.2248 284.806L41.3491 279.994C61.2747 268.482 86.7672 281.465 103.275 296.891L103.375 296.978C122.101 311.672 149.778 310.688 168.515 297.239L164.468 295.949C169.104 308.086 161.576 321.619 149.932 327.804C138.333 334.439 124.448 336.937 110.756 338.118L111 338.108C85.8622 339.294 69.4881 362.51 65.0307 384.325L62.4481 395.647L70.2563 387.045C87.8517 370.004 117.62 379.565 137.166 393.657L137.979 394.063C144.068 396.04 150.729 398.331 158.159 397.243C165.579 396.114 171.448 391.711 176.33 387.355C186.066 378.369 193.846 368.18 201.713 358.074L195.861 357.345C202.395 375.242 189.393 395.361 172.963 406.066C150.69 420.881 139.362 449.401 144.322 475.807L145.8 482.609L150.691 477.634C169.261 460.594 195.528 451.919 219.702 440.593C239.86 431.65 258.636 407.689 249.965 383.77L244.662 388.93C257.481 392.978 263.212 407.14 260.273 420.693C257.739 434.396 250.48 447.438 242.35 459.543L241.99 460.189C236.239 471.242 239.402 486.318 247.284 495.065C255.589 505.045 266.204 511.477 276.908 517.088L285.38 521.446L283.5 512.086C280.309 494.901 295.228 478.467 309.978 466.722C329.358 443.42 332.442 409.549 310.254 387.204C308.085 389.735 305.915 392.265 303.746 394.796C320.822 409.497 317.654 443.601 304.022 459.278C288.79 471.972 270.548 489.472 274.5 513.914L281.092 508.912C270.935 503.706 261.085 497.581 254.242 489.384C247.851 481.92 245.872 472.461 250.01 463.811L249.65 464.457C258.046 451.729 265.794 438.054 268.697 422.151C272.421 406.753 264.456 385.972 247.338 381.07L239.604 378.456L242.035 386.23C249.154 405.488 234.457 424.892 216.298 433.407C192.571 444.819 166.374 453.018 145.309 472.366L151.678 474.193C147.244 451.208 157.085 425.228 177.037 411.934C194.491 400.244 210.533 377.959 202.139 354.655L199.822 349.282L196.287 353.926C180.955 372.186 164.924 401.164 140.021 387.937L140.834 388.343C120.294 374.02 88.0886 361.853 65.7437 382.955L70.9693 385.675C74.9784 365.142 90.281 344.875 111 343.892L111.244 343.882C125.394 342.57 139.873 340.04 152.761 332.631C165.667 325.879 175.479 309.127 169.532 294.051L168.318 290.835L165.485 292.761C148.288 305.251 123.233 305.895 106.625 293.022L106.725 293.109C89.3702 277.356 62.7343 262.39 38.6509 276.006L42.1888 279.003C53.3328 253.919 84.3772 239.264 110.192 251.083C119.938 254.803 130.107 257.825 140.802 258.358C150.989 258.782 164.525 256.722 169.028 244.591L169.663 242.398L167.435 241.933C145.618 237.044 118.571 229.171 112.938 206.612C107.907 185.058 101.821 155.727 75.2881 150.175L75.8113 153.66C99.4081 140.185 129.685 147.279 146.755 168.162L146.583 167.944C158.897 188.158 185.585 199.943 208.533 191.491L211.751 190.337L208.793 188.63C187.573 176.139 159.408 155.234 168.26 129.72L168.332 129.576C172.32 120.209 176.015 110.659 177.894 100.477C180.031 90.9031 178.403 77.1693 167.606 72.7879L167.42 75.2886C178.546 71.7616 191.666 73.0569 200.958 80.2937C210.385 87.5116 214.925 99.4064 216.771 111.193C220.35 135.313 233.747 162.261 259.835 168.123L261.929 168.428L261.027 166.517C250.666 144.583 243.566 114.87 260.677 95.7741C274.162 83.5293 289.421 66.8483 284.904 46.6985L283.604 47.8673C307.178 57.6635 320.815 88.0544 306.246 110.597C301.017 120.439 297.246 131.774 299.34 143.106C301.336 154.435 310.052 163.899 320.743 167.731L322.122 168.213L321.749 166.803C314.461 142.701 334.808 120.307 356.257 111.642C365.342 107.98 374.357 104.232 383.139 99.8364C387.53 97.6103 391.848 95.2632 395.838 92.3236C399.641 89.4478 404.05 85.4786 403.626 79.9519L402.501 80.3814C417.074 97.9266 420.457 131.475 397.836 142.471C373.215 148.592 354.212 174.734 360.533 200.117L360.74 200.941L361.34 200.34C379.288 182.869 404.097 165.202 429.864 172.388C449.5 176.94 470.799 175.791 489.219 167.288L488.641 166.964C486.505 186.01 481.667 213.967 458.5 214.687C430.813 214.879 390.74 222.401 388.751 256L388.751 256.415L389.117 256.22C411.164 244.125 441.389 239.114 461.861 256.144L461.844 256.126C469.683 265.787 478.091 275.115 487.635 283.112C496.986 290.302 508.789 300.424 521.096 295.125L520.866 294.917C510.992 310.765 490.334 322.056 472.06 315.886C447.071 302.715 409.09 289.537 388.922 315.957L388.861 316.067L388.985 316.088C411.37 320.061 438.129 324.233 449.447 346.535C453.02 351.845 455.456 357.957 455.836 364.348C456.175 370.66 456.294 377.341 459.728 382.903C466.474 393.948 477.17 401.514 487.477 409.033L487.478 408.967C467.631 424.638 434.299 423.031 421.019 399.989C406.577 378.286 378.86 367.572 353.497 368.491L353.476 368.498L353.496 368.508C372.999 379.628 402.168 395.501 393.998 422C391.168 436.798 388.266 451.845 389.375 466.951C389.983 475.316 393.354 484.243 401 488.5C400.76 488.474 400.52 488.447 400.282 488.419C375.526 486.046 346.342 471.69 343.37 445.961L343.338 445.707C341.189 434.069 338.534 422.436 334.123 411.187C331.851 405.532 329.203 399.981 325.173 394.84C321.22 390.214 315.265 383.439 305.03 386.404ZM308.97 395.596L305.03 386.404L298.072 389.96L303.746 394.796L310.254 387.204L308.97 395.596Z" fill="#F38638"/>
</svg>
