<svg width="1920" height="1080" viewBox="0 0 1920 1080" fill="none" xmlns="http://www.w3.org/2000/svg">
<rect width="1920" height="1080" fill="#1E1E1E"/>
<g clip-path="url(#clip0_3_2)">
<rect width="1920" height="1080" fill="#CACACA"/>
<path d="M461.856 -13.2889C383.804 2.88974 52.0833 44.9542 208.187 248.805C364.291 452.655 122.33 552.963 208.187 692.099C294.044 831.235 317.46 823.146 738.94 1091.71" stroke="black" stroke-width="2"/>
<path d="M548.371 -10.2889C470.183 5.88974 137.882 47.9542 294.259 251.805C450.636 455.655 208.252 555.963 294.259 695.099C380.266 834.235 403.723 826.146 825.94 1094.71" stroke="black" stroke-width="2"/>
<path d="M350.107 -10.2889C278.605 5.88974 -25.2784 47.9542 117.726 251.805C260.73 455.655 39.0735 555.963 117.726 695.099C196.378 834.235 217.829 826.146 603.94 1094.71" stroke="black" stroke-width="2"/>
<path d="M182.644 -12.2889C148.872 -4.25109 -42.5006 64.8739 47.5572 341.374C137.615 617.874 -24.8107 558.394 -16.7698 685.391C-10.3371 786.989 315.05 999.937 476.94 1093.71" stroke="black" stroke-width="2"/>
<path d="M38.0475 -26.2889C7.0762 -18.1639 -144.174 81.3347 -61.5839 360.835C21.0061 640.335 -152.205 550.586 -144.83 678.961C-138.931 781.661 159.474 996.919 307.94 1091.71" stroke="black" stroke-width="2"/>
<path d="M-157.689 6.29092C-188.006 14.246 -375.688 65.1586 -294.841 338.814C-213.993 612.469 -343.927 571.102 -336.708 696.793C-330.934 797.345 -38.8234 1008.1 106.51 1100.91" stroke="black" stroke-width="2"/>
<path d="M1509.94 1093.71C1550.87 1011.71 1665.6 840.339 1797.03 810.885C1928.47 781.431 1969.07 607.83 1972.94 524.711" stroke="black" stroke-width="2"/>
<path d="M1735.86 1255.04C1775.9 1174.8 1888.14 1007.12 2016.72 978.303C2145.3 949.483 2185.02 779.621 2188.8 698.292" stroke="black" stroke-width="2"/>
<path d="M1660.94 1204.71C1701.87 1122.64 1816.6 951.126 1948.03 921.647C2079.47 892.168 2120.07 695.9 2123.94 612.711" stroke="black" stroke-width="2"/>
<path d="M1589.94 1117.71C1649.44 1058.25 1723.82 933.435 1855.29 903.989C1986.77 874.542 2017.07 644.809 2020.94 561.711" stroke="black" stroke-width="2"/>
</g>
<defs>
<clipPath id="clip0_3_2">
<rect width="1920" height="1080" fill="white"/>
</clipPath>
</defs>
</svg>
